HIERARCHY
ROOT hip
{
  OFFSET 0 0 0
  CHANNELS 6 Xposition Yposition Zposition Zrotation Yrotation Xrotation
  JOINT abdomen
  {
    OFFSET 0 20.6881 -0.73152
    CHANNELS 3 Zrotation Xrotation Yrotation
    JOINT chest
    {
      OFFSET 0 11.7043 -0.48768
      CHANNELS 3 Zrotation Xrotation Yrotation
      JOINT neck
      {
        OFFSET 0 22.1894 -2.19456
        CHANNELS 3 Zrotation Xrotation Yrotation
        JOINT head
        {
          OFFSET -0.24384 7.07133 1.2192
          CHANNELS 3 Zrotation Xrotation Yrotation
          JOINT leftEye
          {
            OFFSET 4.14528 8.04674 8.04672
            CHANNELS 3 Zrotation Xrotation Yrotation
            End Site
            {
              OFFSET 1 0 0
            }
          }
          JOINT rightEye
          {
            OFFSET -3.6576 8.04674 8.04672
            CHANNELS 3 Zrotation Xrotation Yrotation
            End Site
            {
              OFFSET 1 0 0
            }
          }
        }
      }
      JOINT rCollar
      {
        OFFSET -2.68224 19.2634 -4.8768
        CHANNELS 3 Zrotation Xrotation Yrotation
        JOINT rShldr
        {
          OFFSET -8.77824 -1.95073 1.46304
          CHANNELS 3 Zrotation Xrotation Yrotation
          JOINT rForeArm
          {
            OFFSET -28.1742 -1.7115 0.48768
            CHANNELS 3 Zrotation Xrotation Yrotation
            JOINT rHand
            {
              OFFSET -22.5879 0.773209 7.07136
              CHANNELS 3 Zrotation Xrotation Yrotation
              JOINT rThumb1
              {
                OFFSET -1.2192 -0.487915 3.41376
                CHANNELS 3 Zrotation Xrotation Yrotation
                JOINT rThumb2
                {
                  OFFSET -3.37035 -0.52449 3.41376
                  CHANNELS 3 Zrotation Xrotation Yrotation
                  End Site
                  {
                    OFFSET -1.78271 -1.18214 1.43049
                  }
                }
              }
              JOINT rIndex1
              {
                OFFSET -7.75947 0.938293 5.60832
                CHANNELS 3 Zrotation Xrotation Yrotation
                JOINT rIndex2
                {
                  OFFSET -2.54057 -0.884171 1.56538
                  CHANNELS 3 Zrotation Xrotation Yrotation
                  End Site
                  {
                    OFFSET -1.62519 -0.234802 1.16502
                  }
                }
              }
              JOINT rMid1
              {
                OFFSET -8.24714 1.18213 3.41376
                CHANNELS 3 Zrotation Xrotation Yrotation
                JOINT rMid2
                {
                  OFFSET -3.10165 -0.590103 1.0647
                  CHANNELS 3 Zrotation Xrotation Yrotation
                  End Site
                  {
                    OFFSET -2.48547 -0.328903 0.83742
                  }
                }
              }
              JOINT rRing1
              {
                OFFSET -8.82822 0.546677 1.51678
                CHANNELS 3 Zrotation Xrotation Yrotation
                JOINT rRing2
                {
                  OFFSET -2.60934 -0.819778 -0.0198488
                  CHANNELS 3 Zrotation Xrotation Yrotation
                  End Site
                  {
                    OFFSET -2.33842 -0.294052 0.168128
                  }
                }
              }
              JOINT rPinky1
              {
                OFFSET -8.27202 -0.0477905 -0.4584
                CHANNELS 3 Zrotation Xrotation Yrotation
                JOINT rPinky2
                {
                  OFFSET -1.82734 -0.647385 -0.700984
                  CHANNELS 3 Zrotation Xrotation Yrotation
                  End Site
                  {
                    OFFSET -1.69225 -0.51767 -0.607171
                  }
                }
              }
            }
          }
        }
      }
      JOINT lCollar
      {
        OFFSET 2.68224 19.2634 -4.8768
        CHANNELS 3 Zrotation Xrotation Yrotation
        JOINT lShldr
        {
          OFFSET 8.77824 -1.95073 1.46304
          CHANNELS 3 Zrotation Xrotation Yrotation
          JOINT lForeArm
          {
            OFFSET 28.1742 -1.7115 0.48768
            CHANNELS 3 Zrotation Xrotation Yrotation
            JOINT lHand
            {
              OFFSET 22.5879 0.773209 7.07136
              CHANNELS 3 Zrotation Xrotation Yrotation
              JOINT lThumb1
              {
                OFFSET 1.2192 -0.487915 3.41376
                CHANNELS 3 Zrotation Xrotation Yrotation
                JOINT lThumb2
                {
                  OFFSET 3.37035 -0.52449 3.41376
                  CHANNELS 3 Zrotation Xrotation Yrotation
                  End Site
                  {
                    OFFSET 1.78271 -1.18214 1.43049
                  }
                }
              }
              JOINT lIndex1
              {
                OFFSET 7.75947 0.938293 5.60832
                CHANNELS 3 Zrotation Xrotation Yrotation
                JOINT lIndex2
                {
                  OFFSET 2.54057 -0.884171 1.56538
                  CHANNELS 3 Zrotation Xrotation Yrotation
                  End Site
                  {
                    OFFSET 1.62519 -0.234802 1.16502
                  }
                }
              }
              JOINT lMid1
              {
                OFFSET 8.24714 1.18213 3.41376
                CHANNELS 3 Zrotation Xrotation Yrotation
                JOINT lMid2
                {
                  OFFSET 3.10165 -0.590103 1.0647
                  CHANNELS 3 Zrotation Xrotation Yrotation
                  End Site
                  {
                    OFFSET 2.48547 -0.328903 0.83742
                  }
                }
              }
              JOINT lRing1
              {
                OFFSET 8.82822 0.546677 1.51678
                CHANNELS 3 Zrotation Xrotation Yrotation
                JOINT lRing2
                {
                  OFFSET 2.60934 -0.819778 -0.0198488
                  CHANNELS 3 Zrotation Xrotation Yrotation
                  End Site
                  {
                    OFFSET 2.33842 -0.294052 0.168128
                  }
                }
              }
              JOINT lPinky1
              {
                OFFSET 8.27202 -0.0477905 -0.4584
                CHANNELS 3 Zrotation Xrotation Yrotation
                JOINT lPinky2
                {
                  OFFSET 1.82734 -0.647385 -0.700984
                  CHANNELS 3 Zrotation Xrotation Yrotation
                  End Site
                  {
                    OFFSET 1.69225 -0.51767 -0.607171
                  }
                }
              }
            }
          }
        }
      }
    }
  }
  JOINT rButtock
  {
    OFFSET -8.77824 4.35084 1.2192
    CHANNELS 3 Zrotation Xrotation Yrotation
    JOINT rThigh
    {
      OFFSET 0 -1.70687 -2.19456
      CHANNELS 3 Zrotation Xrotation Yrotation
      JOINT rShin
      {
        OFFSET 0 -36.8199 0.73152
        CHANNELS 3 Zrotation Xrotation Yrotation
        JOINT rFoot
        {
          OFFSET 0.73152 -45.1104 -5.12064
          CHANNELS 3 Zrotation Xrotation Yrotation
          End Site
          {
            OFFSET -1.1221 -3.69964 12.103
          }
        }
      }
    }
  }
  JOINT lButtock
  {
    OFFSET 8.77824 4.35084 1.2192
    CHANNELS 3 Zrotation Xrotation Yrotation
    JOINT lThigh
    {
      OFFSET 0 -1.70687 -2.19456
      CHANNELS 3 Zrotation Xrotation Yrotation
      JOINT lShin
      {
        OFFSET 0 -36.8199 0.73152
        CHANNELS 3 Zrotation Xrotation Yrotation
        JOINT lFoot
        {
          OFFSET -0.73152 -45.1104 -5.12064
          CHANNELS 3 Zrotation Xrotation Yrotation
          End Site
          {
            OFFSET 1.1221 -3.69964 12.103
          }
        }
      }
    }
  }
}
MOTION
Frames:	5
Frame Time:	0.00833333
7.07801 82.6754 44.1605 2.3682 -1.8705 -2.8219 -4.22565 10.2166 -0.604103 2.4784 -3.25989 -0.249121 -1.17654 0.107037 -2.83504 0.310827 -7.55623 -5.2775 -0.0 0.0 0.0 -0.0 0.0 0.0 6.82928e-14 -3.90627e-14 -3.48972e-14 81.2485 5.02899 1.33626 -12.5647 -5.85267 22.7082 -0.0222736 4.25403 0.59898 -6.23065e-10 7.11802e-11 -5.01992e-10 -1.07933e-09 1.24767e-10 -8.65761e-10 -6.23034e-10 7.11744e-11 -5.02003e-10 7.73091 5.47488 0.417314 -6.23065e-10 7.11779e-11 -5.01988e-10 2.90554 0.965183 0.102902 -6.2306e-10 7.11792e-11 -5.0199e-10 10.2786 0.731801 0.0259123 -6.2307e-10 7.11828e-11 -5.01988e-10 2.22167 -0.733487 -0.20892 6.80966e-14 -3.90605e-14 -3.52354e-14 -71.067 27.6766 -4.61066 15.7027 -8.41333 -29.0486 0.0034189 -1.61054 0.226417 -3.51429e-10 -3.69034e-10 -2.27927e-10 -6.0564e-10 -6.35107e-10 -3.94073e-10 -3.51434e-10 -3.6903e-10 -2.2791e-10 -7.73091 5.47488 -0.417314 -3.51428e-10 -3.69034e-10 -2.27917e-10 -2.90554 0.965183 -0.102902 -3.51429e-10 -3.69034e-10 -2.27923e-10 -10.2786 0.731801 -0.0259123 -3.51424e-10 -3.69032e-10 -2.27928e-10 -2.22167 -0.733487 0.20892 -2.03217e-16 0.0 -3.88251e-19 -2.26311 -33.6774 0.00582252 -0.387936 42.6922 0.896495 -2.20941 -4.11916 -9.7193 2.03217e-16 0.0 3.88251e-19 -9.42087 -8.22493 -3.38977 0.0826163 33.4937 -0.983593 2.20421 -16.6394 4.4369
7.04923 82.7774 44.866 2.3358 -1.8865 -2.7138 -4.11855 10.1668 -0.678737 2.58552 -3.2009 -0.255476 -1.24451 -0.0130276 -2.83147 0.434958 -7.45883 -5.24171 -0.0 0.0 0.0 -0.0 0.0 0.0 5.90386e-14 2.74324e-14 -4.02632e-14 81.2791 4.81786 1.41918 -12.5047 -5.80902 22.5909 -0.0245719 4.47824 0.630667 -4.04808e-10 -2.76515e-10 -6.6719e-10 -7.02207e-10 -4.77686e-10 -1.15216e-09 -4.0478e-10 -2.76519e-10 -6.672e-10 7.73091 5.47488 0.417314 -4.04809e-10 -2.76516e-10 -6.67185e-10 2.90554 0.965183 0.102902 -4.04806e-10 -2.76515e-10 -6.67186e-10 10.2786 0.731801 0.0259123 -4.04812e-10 -2.76513e-10 -6.67179e-10 2.22167 -0.733487 -0.20892 5.88695e-14 2.74313e-14 -4.0639e-14 -70.5713 27.7821 -5.20186 15.7381 -8.4456 -29.1228 0.00335124 -1.59713 0.22453 -3.04781e-10 -2.17614e-10 -2.59138e-10 -5.25292e-10 -3.73941e-10 -4.48704e-10 -3.04786e-10 -2.1761e-10 -2.59125e-10 -7.73091 5.47488 -0.417314 -3.04779e-10 -2.17613e-10 -2.59128e-10 -2.90554 0.965183 -0.102902 -3.0478e-10 -2.17613e-10 -2.59133e-10 -10.2786 0.731801 -0.0259123 -3.04777e-10 -2.17611e-10 -2.59138e-10 -2.22167 -0.733487 0.20892 -2.03217e-16 0.0 -3.88251e-19 -2.01056 -33.4685 0.315216 -0.331289 39.8854 0.819627 -2.14969 -3.59164 -10.0561 2.03217e-16 0.0 3.88251e-19 -9.25835 -7.35969 -3.28796 0.0742226 32.8425 -0.986178 2.18466 -16.839 4.34739
6.99796 82.8589 45.6352 2.3719 -2.0647 -2.6699 -4.01411 10.0974 -0.761924 2.69569 -3.1486 -0.26477 -1.30272 -0.0959913 -2.82339 0.540122 -7.38729 -5.20139 -0.0 0.0 0.0 -0.0 0.0 0.0 4.65441e-14 9.57165e-14 -3.96238e-14 81.3116 4.60797 1.47569 -12.4452 -5.76583 22.4748 -0.0275437 4.74006 0.667703 -1.89025e-10 -5.29096e-10 -8.11293e-10 -3.29341e-10 -9.15533e-10 -1.40191e-09 -1.89001e-10 -5.29099e-10 -8.11302e-10 7.73091 5.47488 0.417314 -1.89026e-10 -5.29096e-10 -8.11287e-10 2.90554 0.965183 0.102902 -1.89026e-10 -5.29096e-10 -8.11287e-10 10.2786 0.731801 0.0259123 -1.89028e-10 -5.29094e-10 -8.11275e-10 2.22167 -0.733487 -0.20892 4.64094e-14 9.57123e-14 -4.00233e-14 -70.1016 27.8812 -5.76115 15.7615 -8.46723 -29.1711 0.00340717 -1.64439 0.231171 -2.53339e-10 -3.18284e-11 -2.58321e-10 -4.36653e-10 -5.34119e-11 -4.47988e-10 -2.53343e-10 -3.18268e-11 -2.58311e-10 -7.73091 5.47488 -0.417314 -2.53337e-10 -3.18278e-11 -2.58311e-10 -2.90554 0.965183 -0.102902 -2.53337e-10 -3.18281e-11 -2.58315e-10 -10.2786 0.731801 -0.0259123 -2.53336e-10 -3.18263e-11 -2.58321e-10 -2.22167 -0.733487 0.20892 -2.03217e-16 0.0 -3.88251e-19 -1.76124 -33.1933 0.673924 -0.281715 36.9946 0.745872 -2.07864 -3.08816 -10.3564 2.03217e-16 0.0 3.88251e-19 -9.0986 -6.50538 -3.1903 0.066873 32.1812 -0.983716 2.15386 -17.0002 4.23996
6.85399 82.9191 46.3711 2.1294 -2.2195 -2.5093 -3.91324 9.99872 -0.886135 2.80644 -3.11151 -0.286116 -1.32953 -0.114461 -2.81631 0.587706 -7.38526 -5.17656 -0.0 0.0 0.0 -0.0 0.0 0.0 2.69419e-14 1.312e-13 -2.92213e-14 81.3309 4.47338 1.50051 -12.3922 -5.72742 22.3715 -0.0296055 4.90557 0.691139 -1.23412e-11 -5.26972e-10 -8.31664e-10 -2.39734e-11 -9.12224e-10 -1.43761e-09 -1.23215e-11 -5.26973e-10 -8.31674e-10 7.73091 5.47488 0.417314 -1.23425e-11 -5.26972e-10 -8.31658e-10 2.90554 0.965183 0.102902 -1.23431e-11 -5.26971e-10 -8.31657e-10 10.2786 0.731801 0.0259123 -1.23441e-11 -5.26971e-10 -8.31642e-10 2.22167 -0.733487 -0.20892 2.68312e-14 1.31195e-13 -2.96189e-14 -69.6908 27.9539 -6.24268 15.7903 -8.49385 -29.2313 0.00354237 -1.6992 0.238877 -1.42489e-10 2.11237e-10 -1.70545e-10 -2.45263e-10 3.66292e-10 -2.96454e-10 -1.42493e-10 2.11237e-10 -1.70535e-10 -7.73091 5.47488 -0.417314 -1.42487e-10 2.11237e-10 -1.70535e-10 -2.90554 0.965183 -0.102902 -1.42488e-10 2.11237e-10 -1.70538e-10 -10.2786 0.731801 -0.0259123 -1.42487e-10 2.11238e-10 -1.70545e-10 -2.22167 -0.733487 0.20892 -2.03217e-16 0.0 -3.88251e-19 -1.55237 -32.8772 1.06618 -0.238191 34.0719 0.675513 -2.01411 -2.68474 -10.6266 2.03217e-16 0.0 3.88251e-19 -8.97879 -5.73592 -3.1589 0.061138 31.5534 -0.975567 2.12881 -17.0588 4.17447
6.77479 82.974 47.0505 1.9638 -2.1602 -2.2451 -3.80023 9.85446 -1.0752 2.91945 -3.10417 -0.325275 -1.30476 -0.0364804 -2.81034 0.532635 -7.48226 -5.17661 -0.0 0.0 0.0 -0.0 0.0 0.0 -1.00884e-14 1.15763e-13 4.04947e-16 81.3244 4.42886 1.48545 -12.337 -5.68766 22.264 -0.0300812 4.94064 0.696109 1.36125e-10 -6.93235e-11 -6.33871e-10 2.32743e-10 -1.20009e-10 -1.09602e-09 1.36141e-10 -6.93241e-11 -6.33881e-10 7.73091 5.47488 0.417314 1.36124e-10 -6.93231e-11 -6.33865e-10 2.90554 0.965183 0.102902 1.36123e-10 -6.93228e-11 -6.33864e-10 10.2786 0.731801 0.0259123 1.36122e-10 -6.93228e-11 -6.33848e-10 2.22167 -0.733487 -0.20892 -1.01937e-14 1.15759e-13 4.96946e-17 -69.3676 27.9867 -6.60936 15.8283 -8.52869 -29.3111 0.0037956 -1.76307 0.247861 1.02828e-10 6.18277e-10 1.00819e-10 1.7861e-10 1.06961e-09 1.73332e-10 1.02824e-10 6.18276e-10 1.00833e-10 -7.73091 5.47488 -0.417314 1.0283e-10 6.18276e-10 1.00826e-10 -2.90554 0.965183 -0.102902 1.02827e-10 6.18276e-10 1.00823e-10 -10.2786 0.731801 -0.0259123 1.02829e-10 6.18278e-10 1.00818e-10 -2.22167 -0.733487 0.20892 -2.03217e-16 0.0 -3.88251e-19 -1.39101 -32.5182 1.44986 -0.200995 31.076 0.606651 -1.95574 -2.39825 -10.8329 2.03217e-16 0.0 3.88251e-19 -8.90391 -5.09989 -3.22855 0.0579757 30.9753 -0.960676 2.11809 -16.9622 4.18483
